<?xml version="1.0" encoding="UTF-8"?>
<svg id="Camada_2" data-name="Camada 2" xmlns="http://www.w3.org/2000/svg" xmlns:xlink="http://www.w3.org/1999/xlink" viewBox="0 0 150.19 132">
  <defs>
    <style>
      .cls-1 {
        fill: #fff;
      }

      .cls-2 {
        clip-path: url(#clippath);
      }

      .cls-3 {
        fill: none;
      }
    </style>
    <clipPath id="clippath">
      <rect class="cls-3" width="150.19" height="132"/>
    </clipPath>
  </defs>
  <g id="Camada_1-2" data-name="Camada 1">
    <g>
      <g class="cls-2">
        <path class="cls-1" d="M0,0V132H150.19V0H0ZM141.39,17.6h-26.69V8.8h26.69v8.8Zm-35.49-8.8v8.8H8.8V8.8H105.89ZM8.8,123.2V26.4H141.39V123.2H8.8Z"/>
      </g>
      <rect class="cls-1" x="17.89" y="35.2" width="35.2" height="8.8"/>
      <rect class="cls-1" x="17.89" y="52.8" width="35.2" height="8.8"/>
      <rect class="cls-1" x="17.89" y="70.4" width="35.2" height="8.8"/>
      <rect class="cls-1" x="17.89" y="105.6" width="35.2" height="8.8"/>
      <rect class="cls-1" x="17.89" y="88" width="35.2" height="8.8"/>
      <path class="cls-1" d="M83.89,88h38.37l11.73-35.2h-45.7v-4.4c0-7.28-5.92-13.2-13.2-13.2h-13.2v8.8h13.2c2.43,0,4.4,1.97,4.4,4.4v31.56c-5.12,1.82-8.8,6.71-8.8,12.44,0,7.28,5.92,13.2,13.2,13.2h4.4v8.8h8.8v-8.8h17.6v8.8h8.8v-8.8h8.8v-8.8h-48.4c-2.43,0-4.4-1.97-4.4-4.4s1.97-4.4,4.4-4.4h0Zm32.03-8.8h-27.63v-17.6h33.5l-5.87,17.6Z"/>
    </g>
  </g>
</svg>