<?xml version="1.0" encoding="UTF-8"?>
<svg id="Camada_1" data-name="Camada 1" xmlns="http://www.w3.org/2000/svg" viewBox="0 0 185 185">
  <defs>
    <style>
      .cls-1 {
        fill: #fff;
      }
    </style>
  </defs>
  <path class="cls-1" d="M18.07,38v96.54h22.57l18.53,18.53,18.53-18.53h87.18V38H18.07ZM156.27,125.94H74.13l-14.96,14.96-14.96-14.96H26.67V46.6H156.27V125.94Zm0,0"/>
  <path class="cls-1" d="M55.92,77.48l-7.24-9.23-7.24,9.23-11.01,4.03,6.54,9.73,.43,11.72,11.28-3.21,11.28,3.21,.43-11.72,6.54-9.73-11.01-4.03Zm-4.03,11l-.12,3.21-3.09-.88-3.09,.88-.12-3.21-1.79-2.66,3.01-1.1,1.98-2.53,1.98,2.53,3.01,1.1-1.79,2.66Zm0,0"/>
  <path class="cls-1" d="M98.7,77.48l-7.24-9.23-7.24,9.23-11.01,4.03,6.54,9.73,.43,11.72,11.28-3.21,11.28,3.21,.43-11.72,6.54-9.73-11.01-4.03Zm-4.03,11l-.12,3.21-3.09-.88-3.09,.88-.12-3.21-1.79-2.66,3.01-1.1,1.98-2.53,1.98,2.53,3.01,1.1-1.79,2.66Zm0,0"/>
  <path class="cls-1" d="M141.49,77.48l-7.24-9.23-7.24,9.23-11.01,4.03,6.54,9.73,.43,11.72,11.28-3.21,11.28,3.21,.43-11.72,6.54-9.73-11.01-4.03Zm-4.03,11l-.12,3.21-3.09-.88-3.09,.88-.12-3.21-1.79-2.66,3.01-1.1,1.98-2.53,1.98,2.53,3.01,1.1-1.79,2.66Zm0,0"/>
</svg>