<?xml version="1.0" encoding="UTF-8"?>
<svg id="Camada_1" data-name="Camada 1" xmlns="http://www.w3.org/2000/svg" viewBox="0 0 185 185">
  <defs>
    <style>
      .cls-1 {
        fill: #fff;
      }
    </style>
  </defs>
  <path class="cls-1" d="M152.37,58.74v-18.39h-36.45v-8.32h-37.98v26.71h-6.57l-5.33-22.5h-16.48v-8.5H14.05v26.04H49.55v-8.5h9.33l19.44,82.07h76.26l13.41-68.6h-15.63Zm-111.85-14H23.09v-7.97h17.43v7.97Zm75.4,4.65h27.41v9.35h-27.41v-9.35Zm-28.94-8.33h19.91v17.68h-19.91v-17.68Zm60.17,77.24h-61.67l-11.97-50.53h83.52l-9.88,50.53Zm0,0"/>
  <path class="cls-1" d="M138.37,130.94c-8.13,0-14.74,6.61-14.74,14.74s6.61,14.74,14.74,14.74,14.74-6.61,14.74-14.74-6.61-14.74-14.74-14.74h0Zm0,20.45c-3.14,0-5.7-2.56-5.7-5.71s2.56-5.7,5.7-5.7,5.71,2.56,5.71,5.7-2.56,5.71-5.71,5.71h0Zm0,0"/>
  <path class="cls-1" d="M91.93,130.94c-8.13,0-14.74,6.61-14.74,14.74s6.61,14.74,14.74,14.74,14.74-6.61,14.74-14.74c0-8.13-6.61-14.74-14.74-14.74h0Zm0,20.45c-3.14,0-5.7-2.56-5.7-5.71s2.56-5.7,5.7-5.7,5.71,2.56,5.71,5.7-2.56,5.71-5.71,5.71h0Zm0,0"/>
  <rect class="cls-1" x="98.26" y="98.45" width="33.78" height="9.04"/>
  <rect class="cls-1" x="89.23" y="78.6" width="51.85" height="9.04"/>
</svg>