<?xml version="1.0" encoding="UTF-8"?>
<svg id="Camada_1" data-name="Camada 1" xmlns="http://www.w3.org/2000/svg" viewBox="0 0 185 185">
  <defs>
    <style>
      .cls-1 {
        fill: #fff;
      }
    </style>
  </defs>
  <path class="cls-1" d="M27,154.3h58.37v-58.37H27v58.37Zm25.55-51.1h7.27v10.9h-7.27v-10.9Zm-18.29,0h11.02v18.16h21.8v-18.16h11.02v43.84H34.27v-43.84Zm0,0"/>
  <path class="cls-1" d="M56.18,91.69l17.98-17.98c9.91-9.91,9.91-26.05,0-35.96-4.8-4.8-11.19-7.45-17.98-7.45s-13.18,2.65-17.98,7.45c-9.91,9.91-9.91,26.05,0,35.96l17.98,17.98Zm-12.84-48.81c3.43-3.43,7.99-5.32,12.84-5.32s9.41,1.89,12.84,5.32c7.08,7.08,7.08,18.6,0,25.69l-12.84,12.84-12.84-12.84c-7.08-7.08-7.08-18.6,0-25.69h0Zm0,0"/>
  <path class="cls-1" d="M56.18,66.63c6.01,0,10.9-4.89,10.9-10.9s-4.89-10.9-10.9-10.9-10.9,4.89-10.9,10.9,4.89,10.9,10.9,10.9h0Zm0-14.53c2,0,3.63,1.63,3.63,3.63s-1.63,3.63-3.63,3.63-3.63-1.63-3.63-3.63,1.63-3.63,3.63-3.63h0Zm0,0"/>
  <path class="cls-1" d="M92.63,95.93v58.37h58.37v-58.37h-58.37Zm25.55,7.27h7.27v10.9h-7.27v-10.9Zm25.55,43.84h-43.84v-43.84h11.02v18.16h21.8v-18.16h11.02v43.84Zm0,0"/>
  <path class="cls-1" d="M121.82,91.69l17.98-17.98c9.91-9.91,9.91-26.05,0-35.96-4.8-4.8-11.19-7.45-17.98-7.45s-13.18,2.65-17.98,7.45c-9.91,9.91-9.91,26.05,0,35.96l17.98,17.98Zm-12.84-48.81c3.43-3.43,7.99-5.32,12.84-5.32s9.41,1.89,12.84,5.32c7.08,7.08,7.08,18.6,0,25.69l-12.84,12.84-12.84-12.84c-7.08-7.08-7.08-18.6,0-25.69h0Zm0,0"/>
  <path class="cls-1" d="M121.82,66.63c6.01,0,10.9-4.89,10.9-10.9s-4.89-10.9-10.9-10.9-10.9,4.89-10.9,10.9,4.89,10.9,10.9,10.9h0Zm0-14.53c2,0,3.63,1.63,3.63,3.63s-1.63,3.63-3.63,3.63-3.63-1.63-3.63-3.63,1.63-3.63,3.63-3.63h0Zm0,0"/>
</svg>