<?xml version="1.0" encoding="UTF-8"?>
<svg id="Camada_2" data-name="Camada 2" xmlns="http://www.w3.org/2000/svg" viewBox="0 0 384 384">
  <defs>
    <style>
      .cls-1 {
        fill:white;
        stroke-width: 0px;
      }
    </style>
  </defs>
  <g id="Camada_1-2" data-name="Camada 1">
    <g>
      <path class="cls-1" d="M248.25,384H0c0-112.75,0-225.5,0-338.25h45.75V0C111.25,0,176.75,0,242.25,0c.86,1.04,1.66,2.14,2.6,3.1,15.32,15.61,30.71,31.15,45.93,46.86,1.37,1.41,2.37,3.83,2.38,5.79.16,25.87.06,51.75.2,77.62.01,1.99.92,4.36,2.21,5.89,19.26,22.77,24.86,48.42,16.29,77-1.56,5.19-4.08,10.1-6.21,15.27,21.36,18.82,42.71,37.68,64.12,56.48,4.66,4.1,9.48,8.01,14.23,12v.75c-4.97,5.51-9.93,11.01-14.98,16.6-25.24-22.24-50.17-44.2-75.84-66.82v87.81h-44.93v45.66ZM90.85,203.25h67.76v-22.5h-67.6v-22.5c1.6,0,2.96,0,4.32,0,22.25,0,44.5-.05,66.74.06,2.68.01,4.17-.63,5.5-3.16,15.88-30.34,50.14-46.92,83.76-40.45,6.53,1.26,12.87,3.54,19.24,5.33v-29.34h-67.47V22.71H68.52v292.75h202.01v-51.87c-21.6,8.16-26.99,7.15-46.79,7.16-42.75.02-85.49,0-128.24,0h-4.48v-22.59h89.67c-4.46-6.51-9.07-12.81-13.16-19.44-1.4-2.26-2.67-3.03-5.21-3.02-22.5.09-45,.05-67.49.05h-3.97v-22.5ZM225.58,338.1H45.67V68.49h-22.88v292.82h202.79v-23.21ZM237.01,135.75c-30.98,0-56.24,25.28-56.24,56.26,0,30.96,25.3,56.24,56.27,56.23,30.99,0,56.22-25.26,56.21-56.27,0-31.01-25.24-56.23-56.24-56.22ZM270.37,68.1c1.39-4.66-.46-7.59-3.47-10.56-10.5-10.35-20.84-20.87-31.02-31.53-2.88-3.01-5.77-4.43-9.86-3.12v45.21h44.35Z"/>
      <path class="cls-1" d="M110.65,94.04c4.45,4.8,8.93,9.62,13.44,14.48,12.55-12.6,24.68-24.77,36.44-36.58,5.64,5.6,10.81,10.73,15.68,15.56-17.01,17.01-34.53,34.52-51.82,51.82-9.6-9.59-19.63-19.62-29.51-29.5,4.88-4.88,9.98-9.98,15.78-15.78Z"/>
    </g>
  </g>
</svg>