<?xml version="1.0" encoding="UTF-8"?>
<svg id="Camada_2" data-name="Camada 2" xmlns="http://www.w3.org/2000/svg" viewBox="0 0 384 335.6">
  <defs>
    <style>
      .cls-1 {
        fill:white;
        stroke-width: 0px;
      }
    </style>
  </defs>
  <g id="Camada_1-2" data-name="Camada 1">
    <g>
      <path class="cls-1" d="M384,22.46v312.81c-1.48.11-2.97.31-4.45.31-125.03.01-250.07.01-375.1,0-1.48,0-2.97-.2-4.45-.31C0,231,0,126.73,0,22.46c1.48-.11,2.97-.31,4.45-.31,17-.02,34-.01,51-.01,1.45,0,2.89,0,4.67,0V0h264.01v22.14c1.71,0,3.07,0,4.42,0,16.62,0,33.25-.01,49.87.01,1.86,0,3.72.2,5.58.31ZM192,237.01c-8.82-9.81-17.29-19.13-25.62-28.58-1.71-1.94-3.44-2.74-6.07-2.73-31.87.09-63.74.06-95.62.06-1.46,0-2.91,0-4.8,0v-105.33H22.75v212.53h338.52V100.52h-37.39v105.23c-1.77,0-3.24,0-4.71,0-31.25,0-62.49.07-93.74-.09-3.86-.02-6.39,1.08-8.91,3.99-7.89,9.15-16.1,18.02-24.52,27.36ZM82.69,183.3c25.33,0,50.2-.01,75.07,0,5.36,0,11.4-1.38,15.9.63,4.5,2.01,7.47,7.45,11.1,11.4,2.4,2.62,4.76,5.26,7.28,8.04,5.51-6.11,10.68-11.7,15.66-17.45,1.7-1.97,3.48-2.7,6.1-2.69,27.75.1,55.5.06,83.25.06,1.44,0,2.88,0,4.21,0V22.36H82.69v160.94ZM59.88,44.89H22.74v32.62h37.14v-32.62ZM361.18,77.69v-32.87h-36.87v32.87h36.87Z"/>
      <path class="cls-1" d="M318.82,258.47v22.02H65.25v-22.02h253.56Z"/>
      <path class="cls-1" d="M192.29,45.47c7.74-2.29,11.25,1.94,13.98,8.4,2.42,5.72,5.58,11.14,8.71,16.52.78,1.35,2.56,2.66,4.09,2.96,8.32,1.67,16.68,3.09,25.06,4.43,2.13.34,3.29,1.13,3.9,3.25,1.26,4.43,2.96,8.74,4.08,13.19.34,1.33-.17,3.43-1.1,4.43-5.77,6.22-11.84,12.16-17.61,18.38-1.07,1.15-1.79,3.27-1.61,4.82.98,8.28,2.22,16.54,3.53,24.78.37,2.35-.01,3.92-2.18,5.29-4.51,2.86-8.63,8.04-13.27,8.49-4.47.43-9.39-3.91-14.11-6.17-2.7-1.29-5.61-2.29-8.03-3.99-4.05-2.85-7.55-2.2-11.62.08-6.19,3.46-12.76,6.26-19.07,9.54-2.16,1.12-3.73,1.21-5.71-.4-3.29-2.67-6.73-5.18-10.31-7.46-2.27-1.44-2.72-3.06-2.31-5.58,1.33-8.24,2.54-16.5,3.53-24.78.17-1.44-.5-3.43-1.5-4.5-5.69-6.13-11.53-12.12-17.46-18.01-1.71-1.7-2.33-3.13-1.4-5.52,1.62-4.17,2.64-8.57,4.31-12.72.51-1.28,2.18-2.67,3.54-2.94,8.44-1.67,16.97-2.94,25.41-4.6,1.42-.28,3.09-1.54,3.81-2.82,3.95-7.06,7.77-14.21,11.36-21.47,1.33-2.69,2.87-4.07,5.98-3.66,1.97.26,3.99.05,5.99.05ZM221.84,98.2l-.95-1.54c-4.14-.75-8.25-1.85-12.43-2.15-5.11-.37-8.42-2.33-10.3-7.31-1.49-3.95-3.88-7.56-6.16-11.88-3.01,5.68-5.44,10.6-8.23,15.29-.81,1.36-2.54,2.67-4.07,3.02-5.5,1.26-11.09,2.09-16.65,3.08-.33.49-.65.97-.98,1.46,3.66,3.18,7.23,6.48,11.02,9.51,3.02,2.41,3.61,5.17,2.83,8.85-.99,4.67-1.39,9.46-2.15,14.88,4.5-2.18,8.47-3.72,12.02-5.93,4.25-2.65,7.97-2.92,12.31-.1,3.57,2.32,7.67,3.83,12.16,6-.82-5.67-1.4-10.6-2.3-15.47-.56-3.06-.26-5.48,2.34-7.6,3.96-3.23,7.7-6.73,11.53-10.11Z"/>
    </g>
  </g>
</svg>