<?xml version="1.0" encoding="UTF-8"?>
<svg id="Camada_2" data-name="Camada 2" xmlns="http://www.w3.org/2000/svg" viewBox="0 0 512 512">
  <defs>
    <style>
      .cls-1 {
        fill:white;
        stroke-width: 0px;
      }
    </style>
  </defs>
  <g id="Camada_1-2" data-name="Camada 1">
    <g>
      <path class="cls-1" d="M0,241c40.31,0,80.63.66,120.92-.17,49.56-1.02,92.98,14.35,130.51,46.29,17.62,14.99,35.29,30.1,51.35,46.69,22.46,23.21,32.13,51.24,25.38,83.77-.09.46.05.96.13,1.98,9.92.48,19.84.82,29.74,1.48,11.77.79,23.77.69,35.25,3.02,33.98,6.9,58.28,37.28,58.7,71.94.06,5.33.02,10.66.02,15.99h-189c-1.6-.33-3.19-.76-4.81-.97-20.4-2.67-39.64-8.67-56.64-20.57-38.46-26.91-76.86-53.91-115.19-81.02-11.53-8.15-24.25-13.75-38.05-15.26C32.31,392.45,16.11,392.65,0,392c0-50.33,0-100.67,0-151ZM205.4,349.58c31.26,21.09,61.95,41.81,93.23,62.91.6-3.36,1.27-5.77,1.43-8.22,1.29-19.83-5.52-36.78-19.54-50.48-13.57-13.27-27.73-25.96-41.91-38.58-33.75-30.02-72.73-45.78-118.49-44.37-28.13.87-56.31.16-84.46.16h-5.31v90.77c4.81.43,9.29.69,13.74,1.25,20.91,2.65,40.63,8.69,58.08,20.94,37.06,26.03,74.28,51.85,111.08,78.25,19.04,13.66,40.02,19.8,63.14,19.79,45.82-.02,91.63,0,137.45,0h5.32c-.62-1.76-.91-3.04-1.48-4.17-8.09-15.85-20.99-24.71-38.78-25.73-25.61-1.47-51.24-2.49-76.85-3.93-2.79-.16-5.87-1.24-8.2-2.8-27.96-18.7-55.8-37.56-83.67-56.39-7.11-4.81-14.21-9.64-21.52-14.6,5.7-8.43,11.09-16.41,16.76-24.8Z"/>
      <path class="cls-1" d="M512,271H242.34v-29.81h29.41v-121.03h60.04v-59.87h60.21V0h90v241h30v30ZM451.71,240.89V30.35h-29.32v210.54h29.32ZM362.36,90.22v150.54h29.37V90.22h-29.37ZM331.65,240.77v-90.37h-29.4v90.37h29.4Z"/>
    </g>
  </g>
</svg>