<?xml version="1.0" encoding="UTF-8"?>
<svg id="Camada_2" data-name="Camada 2" xmlns="http://www.w3.org/2000/svg" viewBox="0 0 285.75 384">
  <defs>
    <style>
      .cls-1 {
        fill:white;
        stroke-width: 0px;
      }
    </style>
  </defs>
  <g id="Camada_1-2" data-name="Camada 1">
    <g>
      <path class="cls-1" d="M285.75,384H0V127.5h96.4v-22.57h-51.79C77.68,69.62,110.19,34.91,142.89,0c32.81,35.03,65.26,69.68,98.37,105.03h-51.88v22.62h96.38v256.35ZM263.04,361.34v-211.08h-74.07v51.98h-92.34v-51.94H22.64v211.04h240.4ZM189.37,82.48c-15.9-16.97-31.12-33.21-46.49-49.61-15.51,16.57-30.71,32.79-46.58,49.75h23v44.64h47.47v-44.78h22.61ZM119.44,150.21v29.55h47v-29.55h-47Z"/>
      <path class="cls-1" d="M45.2,271.61h51.22v22.17h-51.22v-22.17Z"/>
      <path class="cls-1" d="M96.48,316.76v21.96h-51.29v-21.96h51.29Z"/>
    </g>
  </g>
</svg>