<?xml version="1.0" encoding="UTF-8"?>
<svg id="Camada_1" data-name="Camada 1" xmlns="http://www.w3.org/2000/svg" viewBox="0 0 185 185">
  <defs>
    <style>
      .cls-1 {
        fill: #fff;
      }
    </style>
  </defs>
  <path class="cls-1" d="M130.14,46.12c-6.22-2.07-10.39-7.87-10.39-14.42v-3.58l-3.54-.51c-7.28-1.05-15.52-1.61-23.85-1.61s-16.57,.56-23.85,1.61l-3.54,.51v3.58c0,6.55-4.18,12.35-10.39,14.42l-12.86,4.29v39c0,31.11,19.83,58.62,49.34,68.46l1.31,.44,1.31-.44c29.51-9.84,49.34-37.35,49.34-68.46V50.41l-12.86-4.29Zm5.11,43.29c0,27.36-17.19,51.61-42.9,60.71-25.71-9.1-42.9-33.35-42.9-60.71V55.99l7.56-2.52c8.36-2.79,14.28-10.03,15.47-18.58,6.18-.75,12.99-1.15,19.86-1.15s13.68,.39,19.86,1.15c1.19,8.54,7.11,15.79,15.47,18.58l7.56,2.52v33.42Zm0,0"/>
  <path class="cls-1" d="M106.93,44.29l-1.02-2.27-2.48-.16c-7.27-.48-14.88-.48-22.16,0l-2.48,.16-1.02,2.27c-3.42,7.62-9.91,13.58-17.8,16.36l-2.76,.97v27.78c0,22.3,13.13,42.59,33.45,51.69l1.69,.76,1.69-.76c20.32-9.1,33.45-29.39,33.45-51.69v-27.78l-2.76-.97c-7.89-2.78-14.38-8.75-17.8-16.36h0Zm12.81,45.11c0,18.7-10.7,35.77-27.39,43.92-16.69-8.16-27.39-25.22-27.39-43.92v-22.39c8.11-3.49,14.83-9.73,18.91-17.55,5.6-.29,11.36-.29,16.96,0,4.08,7.82,10.81,14.06,18.91,17.55v22.38Zm0,0"/>
  <path class="cls-1" d="M92.35,80.52c2.14,0,3.88,1.74,3.88,3.88h7.75c0-5.05-3.24-9.36-7.75-10.96v-8.42h-7.75v8.42c-4.51,1.6-7.75,5.91-7.75,10.96,0,6.41,5.22,11.63,11.63,11.63,2.14,0,3.88,1.74,3.88,3.88s-1.74,3.88-3.88,3.88-3.88-1.74-3.88-3.88h-7.75c0,5.05,3.24,9.36,7.75,10.96v8.11h7.75v-8.11c4.51-1.6,7.75-5.91,7.75-10.96,0-6.41-5.22-11.63-11.63-11.63-2.14,0-3.88-1.74-3.88-3.88s1.74-3.88,3.88-3.88h0Zm0,0"/>
</svg>