<?xml version="1.0" encoding="UTF-8"?>
<svg id="Camada_1" data-name="Camada 1" xmlns="http://www.w3.org/2000/svg" viewBox="0 0 185 185">
  <defs>
    <style>
      .cls-1 {
        fill: #fff;
      }
    </style>
  </defs>
  <path class="cls-1" d="M73.22,110.78h38.11v-35.57h-38.11v35.57Zm7.62-27.95h7.63v7.62h7.62v-7.62h7.63v20.33h-22.88v-20.33Zm0,0"/>
  <path class="cls-1" d="M92.28,51.77c-22.73,0-41.23,18.5-41.23,41.23s18.5,41.23,41.23,41.23,41.23-18.5,41.23-41.23-18.5-41.23-41.23-41.23h0Zm0,74.84c-18.53,0-33.61-15.08-33.61-33.61s15.08-33.61,33.61-33.61,33.61,15.08,33.61,33.61-15.08,33.61-33.61,33.61h0Zm0,0"/>
  <path class="cls-1" d="M157.28,107.98v-29.95h-10.56c-1.24-4.52-3.04-8.85-5.37-12.92l7.47-7.48-21.18-21.18-7.48,7.47c-4.08-2.33-8.4-4.12-12.92-5.37v-10.56h-29.95v10.56c-4.52,1.24-8.85,3.04-12.92,5.37l-7.48-7.47-21.18,21.18,7.48,7.48c-2.33,4.08-4.13,8.4-5.37,12.92h-10.56v29.95h10.56c1.24,4.52,3.04,8.85,5.37,12.92l-7.47,7.47,21.18,21.18,7.47-7.47c4.08,2.33,8.4,4.12,12.92,5.37v10.56h29.95v-10.56c4.52-1.24,8.85-3.04,12.92-5.37l7.48,7.47,21.18-21.18-7.47-7.48c2.33-4.08,4.13-8.4,5.37-12.92h10.56Zm-16.61-7.62l-.65,3c-1.24,5.72-3.48,11.12-6.67,16.05l-1.67,2.58,6.38,6.38-10.41,10.41-6.38-6.38-2.58,1.67c-4.93,3.18-10.33,5.43-16.05,6.67l-3,.65v9h-14.71v-9l-3-.65c-5.72-1.24-11.12-3.48-16.05-6.67l-2.58-1.67-6.38,6.38-10.41-10.41,6.38-6.38-1.67-2.58c-3.18-4.93-5.43-10.33-6.67-16.05l-.65-3h-9v-14.71h9l.65-3c1.24-5.72,3.48-11.12,6.67-16.05l1.67-2.58-6.38-6.38,10.41-10.41,6.38,6.38,2.58-1.67c4.93-3.18,10.33-5.43,16.05-6.67l3-.65v-9h14.71v9l3,.65c5.72,1.24,11.12,3.48,16.05,6.67l2.58,1.67,6.38-6.38,10.41,10.41-6.38,6.38,1.67,2.58c3.18,4.93,5.43,10.33,6.67,16.05l.65,3h9v14.71h-9Zm0,0"/>
</svg>